# xmcd
#
# Track frame offsets: 
#        150
#        10655
#        20580
#        33904
#        49734
#        57563
#        69541
#        84544
#        94918
#        110046
#        124238
#        135489
#        152077
#        163305
#        182904
#        197233
#
# Disc length: 2812 seconds
#
# Revision: 0
# Processed by: cddbd v1.5.2PL0 Copyright (c) Steve Scherf et al.
# Submitted via: ExactAudioCopy v1.3
#
DISCID=e20afa10
DTITLE=Nico Brina - 25 Hours 8 Days A Week
DYEAR=2016
DGENRE=Boogie Woogie, Piano Blues
TTITLE0=25 Hours 8 Days A Week
TTITLE1=Chili Billy Boogie
TTITLE2=Bonjour Mon Amour
TTITLE3=Red Crocodile
TTITLE4=Groggy Froggy Boogie
TTITLE5=If You Rock'n'Roll
TTITLE6=Cooee Corinne
TTITLE7=Beautiful Love Bouquet
TTITLE8=Love And Rock'n'Roll
TTITLE9=Grinning Cat Boogie
TTITLE10=Oh Gee How Did I Waste My Time
TTITLE11=Eleven Long Years
TTITLE12=Pinky Monkey Boogie
TTITLE13=Days Forever
TTITLE14=Own Road
TTITLE15=Boogie Woogie Boy
EXTD=
EXTT0=
EXTT1=
EXTT2=
EXTT3=
EXTT4=
EXTT5=
EXTT6=
EXTT7=
EXTT8=
EXTT9=
EXTT10=
EXTT11=
EXTT12=
EXTT13=
EXTT14=
EXTT15=
PLAYORDER=
